<svg xmlns="http://www.w3.org/2000/svg" width="36" height="36" fill="none" viewBox="0 0 36 36">
    <path fill="#fff" d="M0 0H684V920H0z" transform="translate(-36 -85)"/>
    <path fill="#363636" d="M0 6c0-3.314 2.686-6 6-6h30v36H6c-3.314 0-6-2.686-6-6V6z"/>
    <path fill="#fff" d="M18 23c1.1 0 2-.9 2-2s-.9-2-2-2-2 .9-2 2 .9 2 2 2zm6-9h-1v-2c0-2.76-2.24-5-5-5s-5 2.24-5 5h1.9c0-1.71 1.39-3.1 3.1-3.1 1.71 0 3.1 1.39 3.1 3.1v2H12c-1.1 0-2 .9-2 2v10c0 1.1.9 2 2 2h12c1.1 0 2-.9 2-2V16c0-1.1-.9-2-2-2zm0 12H12V16h12v10z"/>
    <path fill="#363636" d="M11 9H17.221V11H11z" transform="rotate(30 11 9)"/>
</svg>
