<svg id="SvgjsSvg1001" width="288" height="288" xmlns="http://www.w3.org/2000/svg" version="1.1" xmlns:xlink="http://www.w3.org/1999/xlink" xmlns:svgjs="http://svgjs.com/svgjs"><defs id="SvgjsDefs1002"></defs><g id="SvgjsG1008" transform="matrix(0.9167,0,0,0.9167,11.99534553604127,11.693535245132466)"><svg xmlns="http://www.w3.org/2000/svg" width="288" height="288" version="1.0" viewBox="0 0 1280 1373"><g transform="matrix(.1 0 0 -.1 0 1373)" fill="#ffffff" class="color000 svgShape"><path d="M6210 13290 c-676 -65 -1392 -450 -1960 -1056 l-95 -102 -829 -1c-694 -1 -846 -4 -935 -17 -776 -114 -1407 -676 -1605 -1430 -65 -249 -59 107
-63 -4144 -3 -2625 0 -3892 7 -3972 22 -250 84 -477 189 -692 299 -612 885
-1018 1570 -1086 147 -14 7678 -14 7827 1 678 66 1268 475 1565 1084 105 217
168 448 189 695 8 87 10 1302 7 3975 -3 3554 -4 3857 -20 3944 -53 298 -150
542 -307 778 -308 463 -789 767 -1341 847 -90 14 -249 16 -1020 17 l-914 0
-75 95 c-96 123 -249 287 -375 403 -382 353 -828 577 -1285 646 -130 19 -403
27 -530 15z m392 -985 c363 -47 677 -209 944 -487 114 -119 189 -226 299 -427
l77 -141 1158 0 c991 0 1169 -2 1237 -15 288 -55 539 -220 699 -461 104 -157
157 -314 174 -514 13 -153 13 -7442 0 -7605 -38 -491 -396 -888 -880 -976
-112 -21 -7708 -21 -7819 0 -486 89 -843 484 -881 976 -13 163 -13 7452 0
7605 17 200 70 357 174 514 160 241 411 406 699 461 68 13 246 15 1237 15
l1158 0 78 143 c122 223 183 309 322 450 243 247 560 411 882 456 41 6 86 13
100 15 64 9 240 5 342 -9z" fill="#ffffff" class="color000 svgShape"></path><path d="M6260 11242c-180-51-322-190-375-367-25-85-24-229 4-315 41-128 145-252 263-311 298-150 659-2 759 311 28 86 29 230 4 315-50 167-180 302-344 358-83 28-229 32-311 9zm280-218c253-115 252-483-2-600-220-101-468 59-468 301 0 87 29 161 88 223 103 109 246 137 382 76zM3730 8590l0-540 2670 0 2670 0 0 540 0 540-2670 0-2670 0 0-540zM3730 6460l0-540 2670 0 2670 0 0 540 0 540-2670 0-2670 0 0-540zM3730 4325l0-535 1870 0 1870 0 0 535 0 535-1870 0-1870 0 0-535z" fill="#ffffff" class="color000 svgShape"></path></g></svg></g></svg>