<svg id="SvgjsSvg1001" width="288" height="288" xmlns="http://www.w3.org/2000/svg" version="1.1" xmlns:xlink="http://www.w3.org/1999/xlink" xmlns:svgjs="http://svgjs.com/svgjs"><defs id="SvgjsDefs1002"></defs><g id="SvgjsG1008" transform="matrix(0.9167,0,0,0.9167,11.990885078811658,11.597473831558233)"><svg xmlns="http://www.w3.org/2000/svg" width="288" height="288" version="1.0" viewBox="0 0 1280 1324"><g transform="matrix(.1 0 0 -.1 0 1324)" fill="#ffffff" class="color000 svgShape"><path d="M3420 9494c-424-51-814-194-1165-429-883-589-1333-1630-1155-2672 95-555 346-1040 744-1439 410-410 905-661 1492-756 138-22 151-22 1337-25l1197-4 0 510 0 510-1152 4c-1266 3-1210 1-1433 65-355 103-680 331-887 622-142 199-248 453-288 687-25 143-27 385-5 523 100 619 536 1131 1125 1318 255 81 268 82 1533 82l1107 0 0 510 0 510-1167-1c-928-1-1192-4-1283-15zM6930 9000l0-510 1108 0c691 0 1141-4 1197-10 721-83 1292-599 1446-1308 33-151 38-438 10-599-40-239-146-492-289-693-210-296-555-534-912-630-206-55-156-53-1402-57l-1158-4 0-510 0-510 1198 4c1185 3 1198 3 1336 25 490 80 915 268 1296 576 101 81 301 282 384 386 311 388 498 825 572 1335 21 147 24 511 5 660-76 592-322 1112-726 1534-387 403-874 669-1420 775-225 44-284 46-1492 46l-1153 0 0-510z" fill="#ffffff" class="color000 svgShape"></path><path d="M4260 6840 l0 -540 2140 0 2140 0 0 540 0 540 -2140 0 -2140 0 0-540z" fill="#ffffff" class="color000 svgShape"></path></g></svg></g></svg>