<?xml version="1.0" standalone="no"?>
<!DOCTYPE svg PUBLIC "-//W3C//DTD SVG 20010904//EN"
 "http://www.w3.org/TR/2001/REC-SVG-20010904/DTD/svg10.dtd">
<svg version="1.0" xmlns="http://www.w3.org/2000/svg"
 width="1280.000000pt" height="1324.000000pt" viewBox="0 0 1280.000000 1324.000000"
 preserveAspectRatio="xMidYMid meet">
<metadata>
Created by potrace 1.16, written by Peter Selinger 2001-2019
</metadata>
<g transform="translate(0.000000,1324.000000) scale(0.100000,-0.100000)"
fill="#000000" stroke="none">
<path d="M3420 9494 c-424 -51 -814 -194 -1165 -429 -883 -589 -1333 -1630
-1155 -2672 95 -555 346 -1040 744 -1439 410 -410 905 -661 1492 -756 138 -22
151 -22 1337 -25 l1197 -4 0 510 0 510 -1152 4 c-1266 3 -1210 1 -1433 65
-355 103 -680 331 -887 622 -142 199 -248 453 -288 687 -25 143 -27 385 -5
523 100 619 536 1131 1125 1318 255 81 268 82 1533 82 l1107 0 0 510 0 510
-1167 -1 c-928 -1 -1192 -4 -1283 -15z"/>
<path d="M6930 9000 l0 -510 1108 0 c691 0 1141 -4 1197 -10 721 -83 1292
-599 1446 -1308 33 -151 38 -438 10 -599 -40 -239 -146 -492 -289 -693 -210
-296 -555 -534 -912 -630 -206 -55 -156 -53 -1402 -57 l-1158 -4 0 -510 0
-510 1198 4 c1185 3 1198 3 1336 25 490 80 915 268 1296 576 101 81 301 282
384 386 311 388 498 825 572 1335 21 147 24 511 5 660 -76 592 -322 1112 -726
1534 -387 403 -874 669 -1420 775 -225 44 -284 46 -1492 46 l-1153 0 0 -510z"/>
<path d="M4260 6840 l0 -540 2140 0 2140 0 0 540 0 540 -2140 0 -2140 0 0
-540z"/>
</g>
</svg>
