<svg id="SvgjsSvg1001" width="288" height="288" xmlns="http://www.w3.org/2000/svg" version="1.1" xmlns:xlink="http://www.w3.org/1999/xlink" xmlns:svgjs="http://svgjs.com/svgjs"><defs id="SvgjsDefs1002"></defs><g id="SvgjsG1008" transform="matrix(0.9167,0,0,0.9167,11.996423551368707,12.012744044065471)"><svg xmlns="http://www.w3.org/2000/svg" width="288" height="288" version="1.0" viewBox="0 0 1280 1278"><g transform="matrix(.1 0 0 -.1 0 1278)" fill="#ffffff" class="color000 svgShape"><path d="M2975 12578 c-463 -52 -919 -291 -1226 -641 -247 -283 -392 -589-466 -987 -17 -90 -18 -334 -21 -4540 -2 -3162 0 -4470 8 -4530 72 -564 362
-1042 830 -1372 203 -143 478 -256 755 -311 l110 -21 3355 -4 c2359 -2 3389 0
3469 8 384 36 758 193 1056 441 315 264 541 622 640 1019 58 233 55 -5 55
3776 l0 3469 -1853 1853 -1852 1852 -2390 -1 c-1348 -1 -2425 -6 -2470 -11z
m6087 -2465 l1598 -1598 0 -3246 c0 -3532 3 -3318 -55 -3488 -122 -358 -427
-629 -795 -708 -81 -17 -236 -18 -3410 -18 -3570 0 -3366 -3 -3530 51 -162 52
-289 132 -415 258 -165 166 -261 348 -300 571 -13 78 -15 585 -15 4407 0 2998
3 4348 11 4415 41 367 262 682 594 844 106 51 215 85 317 98 35 5 1039 9 2233
10 l2170 1 1597 -1597z" fill="#ffffff" class="color000 svgShape"></path><path d="M6930 9145 l0 -1165 1122 0 1123 0 -76 78 c-42 42 -545 566 -1118
1165 -573 598 -1044 1087 -1046 1087 -3 0 -5 -524 -5 -1165z" fill="#ffffff" class="color000 svgShape"></path></g></svg></g></svg>